<svg class="figsvg" viewBox="0 0 400 300" xmlns="http://www.w3.org/2000/svg" role="img"><defs><marker id="ah6" viewBox="0 0 10 10" refX="9" refY="5" markerWidth="6.5" markerHeight="6.5" orient="auto-start-reverse"><path d="M0 0 L10 5 L0 10 z" fill="#1d2b38"/></marker><marker id="ah6b" viewBox="0 0 10 10" refX="9" refY="5" markerWidth="6.5" markerHeight="6.5" orient="auto-start-reverse"><path d="M0 0 L10 5 L0 10 z" fill="#1d2b38"/></marker><clipPath id="cp6"><rect x="16.00" y="12.00" width="374.00" height="268.00"/></clipPath></defs><g clip-path="url(#cp6)"><path d="M51.8 234.8 L52.5 234.7 L53.2 234.5 L53.9 234.4 L54.6 234.2 L55.3 234.1 L56.0 233.9 L56.8 233.7 L57.5 233.6 L58.2 233.4 L58.9 233.3 L59.6 233.1 L60.3 232.9 L61.0 232.8 L61.7 232.6 L62.4 232.5 L63.1 232.3 L63.8 232.1 L64.5 232.0 L65.2 231.8 L65.9 231.6 L66.6 231.5 L67.3 231.3 L68.0 231.1 L68.7 231.0 L69.4 230.8 L70.1 230.6 L70.8 230.5 L71.5 230.3 L72.2 230.1 L72.9 230.0 L73.6 229.8 L74.3 229.6 L75.0 229.4 L75.7 229.3 L76.4 229.1 L77.1 228.9 L77.8 228.7 L78.5 228.6 L79.2 228.4 L79.9 228.2 L80.6 228.0 L81.3 227.9 L82.0 227.7 L82.7 227.5 L83.4 227.3 L84.1 227.1 L84.8 226.9 L85.5 226.8 L86.2 226.6 L86.9 226.4 L87.6 226.2 L88.3 226.0 L89.0 225.8 L89.7 225.6 L90.4 225.5 L91.1 225.3 L91.8 225.1 L92.5 224.9 L93.2 224.7 L93.9 224.5 L94.6 224.3 L95.3 224.1 L96.0 223.9 L96.7 223.7 L97.4 223.5 L98.1 223.3 L98.8 223.1 L99.5 222.9 L100.2 222.7 L100.9 222.5 L101.6 222.3 L102.3 222.1 L103.0 221.9 L103.7 221.7 L104.4 221.5 L105.1 221.3 L105.8 221.1 L106.5 220.9 L107.2 220.7 L107.9 220.4 L108.6 220.2 L109.3 220.0 L110.0 219.8 L110.7 219.6 L111.4 219.4 L112.1 219.1 L112.8 218.9 L113.5 218.7 L114.2 218.5 L114.9 218.3 L115.6 218.0 L116.3 217.8 L117.0 217.6 L117.7 217.3 L118.4 217.1 L119.1 216.9 L119.8 216.6 L120.5 216.4 L121.2 216.2 L121.9 215.9 L122.6 215.7 L123.3 215.5 L124.0 215.2 L124.7 215.0 L125.4 214.7 L126.1 214.5 L126.8 214.2 L127.5 214.0 L128.2 213.7 L128.9 213.5 L129.6 213.2 L130.3 213.0 L131.0 212.7 L131.7 212.5 L132.4 212.2 L133.1 211.9 L133.8 211.7 L134.5 211.4 L135.2 211.1 L135.9 210.9 L136.6 210.6 L137.3 210.3 L138.0 210.0 L138.7 209.8 L139.5 209.5 L140.2 209.2 L140.9 208.9 L141.6 208.6 L142.3 208.3 L143.0 208.0 L143.7 207.7 L144.4 207.4 L145.1 207.1 L145.8 206.8 L146.5 206.5 L147.2 206.2 L147.9 205.9 L148.6 205.6 L149.3 205.3 L150.0 205.0 L150.7 204.6 L151.4 204.3 L152.1 204.0 L152.8 203.6 L153.5 203.3 L154.2 203.0 L154.9 202.6 L155.6 202.3 L156.3 201.9 L157.0 201.6 L157.7 201.2 L158.4 200.8 L159.1 200.5 L159.8 200.1 L160.5 199.7 L161.2 199.4 L161.9 199.0 L162.6 198.6 L163.3 198.2 L164.0 197.8 L164.7 197.4 L165.4 197.0 L166.1 196.5 L166.8 196.1 L167.5 195.7 L168.2 195.3 L168.9 194.8 L169.6 194.4 L170.3 193.9 L171.0 193.5 L171.7 193.0 L172.4 192.5 L173.1 192.0 L173.8 191.5 L174.5 191.0 L175.2 190.5 L175.9 190.0 L176.6 189.4 L177.3 188.9 L178.0 188.3 L178.7 187.7 L179.4 187.2 L180.1 186.6 L180.8 185.9 L181.5 185.3 L182.2 184.7 L182.9 184.0 L183.6 183.3 L184.3 182.6 L185.0 181.9 L185.7 181.1 L186.4 180.3 L187.1 179.5 L187.8 178.7 L188.5 177.8 L189.2 176.9 L189.9 175.9 L190.6 174.9 L191.3 173.8 L192.0 172.7 L192.7 171.5 L193.4 170.2 L194.1 168.7 L194.8 167.2 L195.5 165.4 L196.2 163.4 L196.9 161.0 L197.6 158.0 L198.3 153.8 L199.0 137.4 L199.7 121.0 L200.4 116.7 L201.1 113.7 L201.8 111.3 L202.5 109.3 L203.2 107.6 L203.9 106.0 L204.6 104.6 L205.3 103.3 L206.0 102.0 L206.7 100.9 L207.4 99.8 L208.1 98.8 L208.8 97.8 L209.5 96.9 L210.2 96.0 L210.9 95.2 L211.6 94.4 L212.3 93.6 L213.0 92.9 L213.7 92.1 L214.4 91.4 L215.1 90.7 L215.8 90.1 L216.5 89.4 L217.2 88.8 L217.9 88.2 L218.6 87.6 L219.3 87.0 L220.0 86.4 L220.7 85.9 L221.4 85.3 L222.2 84.8 L222.9 84.2 L223.6 83.7 L224.3 83.2 L225.0 82.7 L225.7 82.2 L226.4 81.8 L227.1 81.3 L227.8 80.8 L228.5 80.4 L229.2 79.9 L229.9 79.5 L230.6 79.0 L231.3 78.6 L232.0 78.2 L232.7 77.8 L233.4 77.4 L234.1 77.0 L234.8 76.6 L235.5 76.2 L236.2 75.8 L236.9 75.4 L237.6 75.0 L238.3 74.6 L239.0 74.3 L239.7 73.9 L240.4 73.5 L241.1 73.2 L241.8 72.8 L242.5 72.5 L243.2 72.1 L243.9 71.8 L244.6 71.4 L245.3 71.1 L246.0 70.8 L246.7 70.4 L247.4 70.1 L248.1 69.8 L248.8 69.5 L249.5 69.2 L250.2 68.8 L250.9 68.5 L251.6 68.2 L252.3 67.9 L253.0 67.6 L253.7 67.3 L254.4 67.0 L255.1 66.7 L255.8 66.4 L256.5 66.1 L257.2 65.8 L257.9 65.6 L258.6 65.3 L259.3 65.0 L260.0 64.7 L260.7 64.4 L261.4 64.2 L262.1 63.9 L262.8 63.6 L263.5 63.3 L264.2 63.1 L264.9 62.8 L265.6 62.5 L266.3 62.3 L267.0 62.0 L267.7 61.8 L268.4 61.5 L269.1 61.3 L269.8 61.0 L270.5 60.8 L271.2 60.5 L271.9 60.3 L272.6 60.0 L273.3 59.8 L274.0 59.5 L274.7 59.3 L275.4 59.0 L276.1 58.8 L276.8 58.6 L277.5 58.3 L278.2 58.1 L278.9 57.9 L279.6 57.6 L280.3 57.4 L281.0 57.2 L281.7 56.9 L282.4 56.7 L283.1 56.5 L283.8 56.3 L284.5 56.0 L285.2 55.8 L285.9 55.6 L286.6 55.4 L287.3 55.2 L288.0 54.9 L288.7 54.7 L289.4 54.5 L290.1 54.3 L290.8 54.1 L291.5 53.9 L292.2 53.7 L292.9 53.5 L293.6 53.2 L294.3 53.0 L295.0 52.8 L295.7 52.6 L296.4 52.4 L297.1 52.2 L297.8 52.0 L298.5 51.8 L299.2 51.6 L299.9 51.4 L300.6 51.2 L301.3 51.0 L302.0 50.8 L302.7 50.6 L303.4 50.4 L304.1 50.2 L304.9 50.0 L305.6 49.9 L306.3 49.7 L307.0 49.5 L307.7 49.3 L308.4 49.1 L309.1 48.9 L309.8 48.7 L310.5 48.5 L311.2 48.3 L311.9 48.2 L312.6 48.0 L313.3 47.8 L314.0 47.6 L314.7 47.4 L315.4 47.2 L316.1 47.1 L316.8 46.9 L317.5 46.7 L318.2 46.5 L318.9 46.4 L319.6 46.2 L320.3 46.0 L321.0 45.8 L321.7 45.6 L322.4 45.5 L323.1 45.3 L323.8 45.1 L324.5 45.0 L325.2 44.8 L325.9 44.6 L326.6 44.4 L327.3 44.3 L328.0 44.1 L328.7 43.9 L329.4 43.8 L330.1 43.6 L330.8 43.4 L331.5 43.3 L332.2 43.1 L332.9 42.9 L333.6 42.8 L334.3 42.6 L335.0 42.4 L335.7 42.3 L336.4 42.1 L337.1 42.0 L337.8 41.8 L338.5 41.6 L339.2 41.5 L339.9 41.3 L340.6 41.2 L341.3 41.0 L342.0 40.8 L342.7 40.7 L343.4 40.5 L344.1 40.4 L344.8 40.2 L345.5 40.1 L346.2 39.9" fill="none" stroke="#16222e" stroke-width="2.60" stroke-linecap="round" stroke-linejoin="round"/><path d="M199.02 213.32 L199.02 57.97" fill="none" stroke="#3aa7c4" stroke-width="2.00" stroke-linecap="round" stroke-linejoin="round"/></g><line x1="24.00" y1="247.84" x2="390.00" y2="247.84" stroke="#1d2b38" stroke-width="1.7" marker-end="url(#ah6)" /><line x1="83.67" y1="272.00" x2="83.67" y2="12.00" stroke="#1d2b38" stroke-width="1.7" marker-end="url(#ah6)" /><text x="394.00" y="251.84" fill="#16222e" font-family="Georgia, 'Times New Roman', serif" font-size="13" font-style="italic" text-anchor="start" direction="ltr">x</text><text x="83.67" y="8.00" fill="#16222e" font-family="Georgia, 'Times New Roman', serif" font-size="13" font-style="italic" text-anchor="middle" direction="ltr">y</text><g clip-path="url(#cp6)"><circle cx="199.02" cy="137.37" r="4.40" fill="#16222e" stroke="#fff" stroke-width="1.6"/><text x="199.02" y="262.84" fill="#3d4f5e" font-family="Georgia, 'Times New Roman', serif" font-size="12.0" text-anchor="middle" direction="ltr" font-style="italic" stroke="#fff" stroke-width="3" paint-order="stroke" stroke-linejoin="round">c</text></g></svg>