<svg class="figsvg" viewBox="0 0 400 300" xmlns="http://www.w3.org/2000/svg" role="img"><defs><marker id="ah31" viewBox="0 0 10 10" refX="9" refY="5" markerWidth="6.5" markerHeight="6.5" orient="auto-start-reverse"><path d="M0 0 L10 5 L0 10 z" fill="#1d2b38"/></marker><marker id="ah31b" viewBox="0 0 10 10" refX="9" refY="5" markerWidth="6.5" markerHeight="6.5" orient="auto-start-reverse"><path d="M0 0 L10 5 L0 10 z" fill="#1d2b38"/></marker><clipPath id="cp31"><rect x="18.00" y="8.00" width="364.00" height="270.00"/></clipPath></defs><g clip-path="url(#cp31)"><rect x="73.19" y="38.51" width="235.93" height="202.56" fill="#fbe4ec"/><path d="M73.19 96.38 C79.08 101.74 96.29 117.81 108.58 128.53 C120.86 139.25 134.63 153.18 146.92 160.68 C159.20 168.19 176.41 171.40 182.31 173.54" fill="none" stroke="#16222e" stroke-width="2.50" stroke-linecap="round" stroke-linejoin="round"/><path d="M182.31 141.39 C189.68 138.71 211.80 131.75 226.54 125.32 C241.29 118.89 257.02 109.78 270.78 102.81 C284.54 95.84 302.73 86.73 309.12 83.52" fill="none" stroke="#16222e" stroke-width="2.50" stroke-linecap="round" stroke-linejoin="round"/><line x1="182.31" y1="173.54" x2="182.31" y2="141.39" stroke="#c07a93" stroke-width="1.50" stroke-dasharray="3 3"/></g><line x1="26.00" y1="241.06" x2="382.00" y2="241.06" stroke="#1d2b38" stroke-width="1.7" marker-end="url(#ah31)" /><line x1="43.69" y1="270.00" x2="43.69" y2="8.00" stroke="#1d2b38" stroke-width="1.7" marker-end="url(#ah31)" /><text x="386.00" y="245.06" fill="#16222e" font-family="Georgia, 'Times New Roman', serif" font-size="13" font-style="italic" text-anchor="start" direction="ltr">x</text><text x="43.69" y="4.00" fill="#16222e" font-family="Georgia, 'Times New Roman', serif" font-size="13" font-style="italic" text-anchor="middle" direction="ltr">y</text><g clip-path="url(#cp31)"><circle cx="73.19" cy="96.38" r="4.10" fill="#fff" stroke="#16222e" stroke-width="2.1"/><circle cx="182.31" cy="173.54" r="4.10" fill="#fff" stroke="#16222e" stroke-width="2.1"/><circle cx="309.12" cy="83.52" r="4.10" fill="#fff" stroke="#16222e" stroke-width="2.1"/><circle cx="182.31" cy="141.39" r="4.40" fill="#16222e" stroke="#fff" stroke-width="1.6"/><text x="73.19" y="256.06" fill="#16222e" font-family="Georgia, 'Times New Roman', serif" font-size="12.5" text-anchor="middle" direction="ltr" font-style="italic" stroke="#fff" stroke-width="3" paint-order="stroke" stroke-linejoin="round">a</text><text x="309.12" y="256.06" fill="#16222e" font-family="Georgia, 'Times New Roman', serif" font-size="12.5" text-anchor="middle" direction="ltr" font-style="italic" stroke="#fff" stroke-width="3" paint-order="stroke" stroke-linejoin="round">b</text><text x="322.12" y="88.52" fill="#16222e" font-family="Georgia, 'Times New Roman', serif" font-size="13.5" text-anchor="middle" direction="ltr" font-style="italic" stroke="#fff" stroke-width="3" paint-order="stroke" stroke-linejoin="round">f</text></g></svg>