<svg class="figsvg" viewBox="0 0 400 300" xmlns="http://www.w3.org/2000/svg" role="img"><defs><marker id="ah36" viewBox="0 0 10 10" refX="9" refY="5" markerWidth="6.5" markerHeight="6.5" orient="auto-start-reverse"><path d="M0 0 L10 5 L0 10 z" fill="#1d2b38"/></marker><marker id="ah36b" viewBox="0 0 10 10" refX="9" refY="5" markerWidth="6.5" markerHeight="6.5" orient="auto-start-reverse"><path d="M0 0 L10 5 L0 10 z" fill="#1d2b38"/></marker><clipPath id="cp36"><rect x="22.00" y="12.00" width="364.00" height="268.00"/></clipPath></defs><g clip-path="url(#cp36)"><path d="M65.6 270.5 L66.5 265.5 L67.3 260.6 L68.1 255.8 L68.9 251.0 L69.8 246.3 L70.6 241.8 L71.4 237.2 L72.3 232.8 L73.1 228.4 L73.9 224.1 L74.7 219.9 L75.6 215.7 L76.4 211.6 L77.2 207.6 L78.1 203.6 L78.9 199.8 L79.7 195.9 L80.5 192.2 L81.4 188.5 L82.2 184.9 L83.0 181.4 L83.9 177.9 L84.7 174.5 L85.5 171.2 L86.3 167.9 L87.2 164.7 L88.0 161.6 L88.8 158.5 L89.7 155.5 L90.5 152.5 L91.3 149.6 L92.1 146.8 L93.0 144.0 L93.8 141.3 L94.6 138.7 L95.5 136.1 L96.3 133.6 L97.1 131.1 L97.9 128.7 L98.8 126.4 L99.6 124.1 L100.4 121.9 L101.3 119.7 L102.1 117.6 L102.9 115.5 L103.7 113.5 L104.6 111.6 L105.4 109.7 L106.2 107.9 L107.1 106.1 L107.9 104.4 L108.7 102.7 L109.5 101.1 L110.4 99.5 L111.2 98.0 L112.0 96.5 L112.9 95.1 L113.7 93.7 L114.5 92.4 L115.3 91.2 L116.2 89.9 L117.0 88.8 L117.8 87.7 L118.7 86.6 L119.5 85.6 L120.3 84.6 L121.1 83.7 L122.0 82.8 L122.8 81.9 L123.6 81.1 L124.5 80.4 L125.3 79.7 L126.1 79.0 L126.9 78.4 L127.8 77.8 L128.6 77.3 L129.4 76.8 L130.3 76.4 L131.1 75.9 L131.9 75.6 L132.7 75.2 L133.6 75.0 L134.4 74.7 L135.2 74.5 L136.1 74.3 L136.9 74.2 L137.7 74.1 L138.5 74.0 L139.4 74.0 L140.2 74.0 L141.0 74.1 L141.9 74.1 L142.7 74.3 L143.5 74.4 L144.3 74.6 L145.2 74.8 L146.0 75.0 L146.8 75.3 L147.7 75.6 L148.5 76.0 L149.3 76.4 L150.1 76.8 L151.0 77.2 L151.8 77.7 L152.6 78.1 L153.5 78.7 L154.3 79.2 L155.1 79.8 L155.9 80.4 L156.8 81.0 L157.6 81.7 L158.4 82.4 L159.3 83.1 L160.1 83.8 L160.9 84.6 L161.7 85.3 L162.6 86.1 L163.4 87.0 L164.2 87.8 L165.1 88.7 L165.9 89.6 L166.7 90.5 L167.5 91.4 L168.4 92.4 L169.2 93.3 L170.0 94.3 L170.9 95.4 L171.7 96.4 L172.5 97.4 L173.3 98.5 L174.2 99.6 L175.0 100.7 L175.8 101.8 L176.7 102.9 L177.5 104.1 L178.3 105.2 L179.1 106.4 L180.0 107.6 L180.8 108.8 L181.6 110.0 L182.5 111.2 L183.3 112.5 L184.1 113.7 L184.9 115.0 L185.8 116.3 L186.6 117.5 L187.4 118.8 L188.3 120.1 L189.1 121.5 L189.9 122.8 L190.7 124.1 L191.6 125.4 L192.4 126.8 L193.2 128.1 L194.1 129.5 L194.9 130.8 L195.7 132.2 L196.5 133.6 L197.4 134.9 L198.2 136.3 L199.0 137.7 L199.9 139.1 L200.7 140.5 L201.5 141.8 L202.3 143.2 L203.2 144.6 L204.0 146.0 L204.8 147.4 L205.7 148.8 L206.5 150.2 L207.3 151.5 L208.1 152.9 L209.0 154.3 L209.8 155.7 L210.6 157.1 L211.5 158.4 L212.3 159.8 L213.1 161.2 L213.9 162.5 L214.8 163.9 L215.6 165.2 L216.4 166.6 L217.3 167.9 L218.1 169.2 L218.9 170.5 L219.7 171.9 L220.6 173.2 L221.4 174.5 L222.2 175.7 L223.1 177.0 L223.9 178.3 L224.7 179.5 L225.5 180.8 L226.4 182.0 L227.2 183.2 L228.0 184.4 L228.9 185.6 L229.7 186.8 L230.5 187.9 L231.3 189.1 L232.2 190.2 L233.0 191.3 L233.8 192.4 L234.7 193.5 L235.5 194.6 L236.3 195.6 L237.1 196.6 L238.0 197.7 L238.8 198.7 L239.6 199.6 L240.5 200.6 L241.3 201.5 L242.1 202.4 L242.9 203.3 L243.8 204.2 L244.6 205.0 L245.4 205.9 L246.3 206.7 L247.1 207.4 L247.9 208.2 L248.7 208.9 L249.6 209.6 L250.4 210.3 L251.2 211.0 L252.1 211.6 L252.9 212.2 L253.7 212.8 L254.5 213.3 L255.4 213.9 L256.2 214.3 L257.0 214.8 L257.9 215.2 L258.7 215.6 L259.5 216.0 L260.3 216.4 L261.2 216.7 L262.0 217.0 L262.8 217.2 L263.7 217.4 L264.5 217.6 L265.3 217.7 L266.1 217.9 L267.0 217.9 L267.8 218.0 L268.6 218.0 L269.5 218.0 L270.3 217.9 L271.1 217.8 L271.9 217.7 L272.8 217.5 L273.6 217.3 L274.4 217.0 L275.3 216.8 L276.1 216.4 L276.9 216.1 L277.7 215.6 L278.6 215.2 L279.4 214.7 L280.2 214.2 L281.1 213.6 L281.9 213.0 L282.7 212.3 L283.5 211.6 L284.4 210.9 L285.2 210.1 L286.0 209.2 L286.9 208.3 L287.7 207.4 L288.5 206.4 L289.3 205.4 L290.2 204.3 L291.0 203.2 L291.8 202.1 L292.7 200.8 L293.5 199.6 L294.3 198.3 L295.1 196.9 L296.0 195.5 L296.8 194.0 L297.6 192.5 L298.5 190.9 L299.3 189.3 L300.1 187.6 L300.9 185.9 L301.8 184.1 L302.6 182.3 L303.4 180.4 L304.3 178.5 L305.1 176.5 L305.9 174.4 L306.7 172.3 L307.6 170.1 L308.4 167.9 L309.2 165.6 L310.1 163.3 L310.9 160.9 L311.7 158.4 L312.5 155.9 L313.4 153.3 L314.2 150.7 L315.0 148.0 L315.9 145.2 L316.7 142.4 L317.5 139.5 L318.3 136.5 L319.2 133.5 L320.0 130.4 L320.8 127.3 L321.7 124.1 L322.5 120.8 L323.3 117.5 L324.1 114.1 L325.0 110.6 L325.8 107.1 L326.6 103.5 L327.5 99.8 L328.3 96.1 L329.1 92.2 L329.9 88.4 L330.8 84.4 L331.6 80.4 L332.4 76.3 L333.3 72.1 L334.1 67.9 L334.9 63.6 L335.7 59.2 L336.6 54.8 L337.4 50.2 L338.2 45.7 L339.1 41.0 L339.9 36.2 L340.7 31.4 L341.5 26.5 L342.4 21.5 L343.2 20.0" fill="none" stroke="#b3322c" stroke-width="2.90" stroke-linecap="round" stroke-linejoin="round"/></g><line x1="75.11" y1="20.00" x2="75.11" y2="272.00" stroke="#dde9f1" stroke-width="1"/><line x1="139.56" y1="20.00" x2="139.56" y2="272.00" stroke="#dde9f1" stroke-width="1"/><line x1="268.44" y1="20.00" x2="268.44" y2="272.00" stroke="#dde9f1" stroke-width="1"/><line x1="332.89" y1="20.00" x2="332.89" y2="272.00" stroke="#dde9f1" stroke-width="1"/><line x1="30.00" y1="254.00" x2="378.00" y2="254.00" stroke="#dde9f1" stroke-width="1"/><line x1="30.00" y1="218.00" x2="378.00" y2="218.00" stroke="#dde9f1" stroke-width="1"/><line x1="30.00" y1="182.00" x2="378.00" y2="182.00" stroke="#dde9f1" stroke-width="1"/><line x1="30.00" y1="110.00" x2="378.00" y2="110.00" stroke="#dde9f1" stroke-width="1"/><line x1="30.00" y1="74.00" x2="378.00" y2="74.00" stroke="#dde9f1" stroke-width="1"/><line x1="30.00" y1="38.00" x2="378.00" y2="38.00" stroke="#dde9f1" stroke-width="1"/><line x1="24.00" y1="146.00" x2="386.00" y2="146.00" stroke="#1d2b38" stroke-width="1.7" marker-end="url(#ah36)" marker-start="url(#ah36b)"/><line x1="204.00" y1="278.00" x2="204.00" y2="12.00" stroke="#1d2b38" stroke-width="1.7" marker-end="url(#ah36)" marker-start="url(#ah36b)"/><line x1="75.11" y1="142.50" x2="75.11" y2="149.50" stroke="#1d2b38" stroke-width="1.4"/><text x="75.11" y="161.00" fill="#3d4f5e" font-family="Georgia, 'Times New Roman', serif" font-size="11" text-anchor="middle" direction="ltr" stroke="#fff" stroke-width="3" paint-order="stroke" stroke-linejoin="round">−2</text><line x1="139.56" y1="142.50" x2="139.56" y2="149.50" stroke="#1d2b38" stroke-width="1.4"/><text x="139.56" y="161.00" fill="#3d4f5e" font-family="Georgia, 'Times New Roman', serif" font-size="11" text-anchor="middle" direction="ltr" stroke="#fff" stroke-width="3" paint-order="stroke" stroke-linejoin="round">−1</text><line x1="268.44" y1="142.50" x2="268.44" y2="149.50" stroke="#1d2b38" stroke-width="1.4"/><text x="268.44" y="161.00" fill="#3d4f5e" font-family="Georgia, 'Times New Roman', serif" font-size="11" text-anchor="middle" direction="ltr" stroke="#fff" stroke-width="3" paint-order="stroke" stroke-linejoin="round">1</text><line x1="332.89" y1="142.50" x2="332.89" y2="149.50" stroke="#1d2b38" stroke-width="1.4"/><text x="332.89" y="161.00" fill="#3d4f5e" font-family="Georgia, 'Times New Roman', serif" font-size="11" text-anchor="middle" direction="ltr" stroke="#fff" stroke-width="3" paint-order="stroke" stroke-linejoin="round">2</text><line x1="200.50" y1="254.00" x2="207.50" y2="254.00" stroke="#1d2b38" stroke-width="1.4"/><text x="198.00" y="257.80" fill="#3d4f5e" font-family="Georgia, 'Times New Roman', serif" font-size="11" text-anchor="end" direction="ltr" stroke="#fff" stroke-width="3" paint-order="stroke" stroke-linejoin="round">−3</text><line x1="200.50" y1="218.00" x2="207.50" y2="218.00" stroke="#1d2b38" stroke-width="1.4"/><text x="198.00" y="221.80" fill="#3d4f5e" font-family="Georgia, 'Times New Roman', serif" font-size="11" text-anchor="end" direction="ltr" stroke="#fff" stroke-width="3" paint-order="stroke" stroke-linejoin="round">−2</text><line x1="200.50" y1="182.00" x2="207.50" y2="182.00" stroke="#1d2b38" stroke-width="1.4"/><text x="198.00" y="185.80" fill="#3d4f5e" font-family="Georgia, 'Times New Roman', serif" font-size="11" text-anchor="end" direction="ltr" stroke="#fff" stroke-width="3" paint-order="stroke" stroke-linejoin="round">−1</text><line x1="200.50" y1="110.00" x2="207.50" y2="110.00" stroke="#1d2b38" stroke-width="1.4"/><text x="198.00" y="113.80" fill="#3d4f5e" font-family="Georgia, 'Times New Roman', serif" font-size="11" text-anchor="end" direction="ltr" stroke="#fff" stroke-width="3" paint-order="stroke" stroke-linejoin="round">1</text><line x1="200.50" y1="74.00" x2="207.50" y2="74.00" stroke="#1d2b38" stroke-width="1.4"/><text x="198.00" y="77.80" fill="#3d4f5e" font-family="Georgia, 'Times New Roman', serif" font-size="11" text-anchor="end" direction="ltr" stroke="#fff" stroke-width="3" paint-order="stroke" stroke-linejoin="round">2</text><line x1="200.50" y1="38.00" x2="207.50" y2="38.00" stroke="#1d2b38" stroke-width="1.4"/><text x="198.00" y="41.80" fill="#3d4f5e" font-family="Georgia, 'Times New Roman', serif" font-size="11" text-anchor="end" direction="ltr" stroke="#fff" stroke-width="3" paint-order="stroke" stroke-linejoin="round">3</text><text x="390.00" y="150.00" fill="#16222e" font-family="Georgia, 'Times New Roman', serif" font-size="13" font-style="italic" text-anchor="start" direction="ltr">x</text><text x="204.00" y="8.00" fill="#16222e" font-family="Georgia, 'Times New Roman', serif" font-size="13" font-style="italic" text-anchor="middle" direction="ltr">y</text><g clip-path="url(#cp36)"><text x="316.78" y="70.40" fill="#b3322c" font-family="Georgia, 'Times New Roman', serif" font-size="14.0" text-anchor="middle" direction="ltr" font-style="italic" stroke="#fff" stroke-width="3" paint-order="stroke" stroke-linejoin="round">f</text></g></svg>