<svg class="figsvg" viewBox="0 0 400 300" xmlns="http://www.w3.org/2000/svg" role="img"><defs><marker id="ah43" viewBox="0 0 10 10" refX="9" refY="5" markerWidth="6.5" markerHeight="6.5" orient="auto-start-reverse"><path d="M0 0 L10 5 L0 10 z" fill="#1d2b38"/></marker><marker id="ah43b" viewBox="0 0 10 10" refX="9" refY="5" markerWidth="6.5" markerHeight="6.5" orient="auto-start-reverse"><path d="M0 0 L10 5 L0 10 z" fill="#1d2b38"/></marker><clipPath id="cp43"><rect x="22.00" y="12.00" width="364.00" height="268.00"/></clipPath></defs><g clip-path="url(#cp43)"><path d="M63.1 22.0 L64.0 24.9 L64.8 27.9 L65.6 30.8 L66.5 33.6 L67.3 36.4 L68.1 39.2 L68.9 41.9 L69.8 44.6 L70.6 47.2 L71.4 49.7 L72.3 52.3 L73.1 54.8 L73.9 57.2 L74.7 59.6 L75.6 61.9 L76.4 64.2 L77.2 66.5 L78.1 68.7 L78.9 70.9 L79.7 73.0 L80.5 75.1 L81.4 77.2 L82.2 79.2 L83.0 81.2 L83.9 83.1 L84.7 85.0 L85.5 86.9 L86.3 88.7 L87.2 90.5 L88.0 92.2 L88.8 93.9 L89.7 95.6 L90.5 97.3 L91.3 98.9 L92.1 100.4 L93.0 102.0 L93.8 103.5 L94.6 104.9 L95.5 106.3 L96.3 107.7 L97.1 109.1 L97.9 110.4 L98.8 111.7 L99.6 113.0 L100.4 114.2 L101.3 115.4 L102.1 116.6 L102.9 117.7 L103.7 118.8 L104.6 119.9 L105.4 121.0 L106.2 122.0 L107.1 123.0 L107.9 124.0 L108.7 124.9 L109.5 125.8 L110.4 126.7 L111.2 127.6 L112.0 128.4 L112.9 129.2 L113.7 130.0 L114.5 130.7 L115.3 131.5 L116.2 132.2 L117.0 132.9 L117.8 133.5 L118.7 134.2 L119.5 134.8 L120.3 135.4 L121.1 136.0 L122.0 136.5 L122.8 137.1 L123.6 137.6 L124.5 138.1 L125.3 138.5 L126.1 139.0 L126.9 139.4 L127.8 139.8 L128.6 140.2 L129.4 140.6 L130.3 141.0 L131.1 141.3 L131.9 141.7 L132.7 142.0 L133.6 142.3 L134.4 142.6 L135.2 142.8 L136.1 143.1 L136.9 143.3 L137.7 143.6 L138.5 143.8 L139.4 144.0 L140.2 144.2 L141.0 144.3 L141.9 144.5 L142.7 144.6 L143.5 144.8 L144.3 144.9 L145.2 145.0 L146.0 145.2 L146.8 145.3 L147.7 145.4 L148.5 145.4 L149.3 145.5 L150.1 145.6 L151.0 145.7 L151.8 145.7 L152.6 145.8 L153.5 145.8 L154.3 145.8 L155.1 145.9 L155.9 145.9 L156.8 145.9 L157.6 145.9 L158.4 146.0 L159.3 146.0 L160.1 146.0 L160.9 146.0 L161.7 146.0 L162.6 146.0 L163.4 146.0 L164.2 146.0 L165.1 146.0 L165.9 146.0 L166.7 146.0 L167.5 146.0 L168.4 146.0 L169.2 146.0 L170.0 146.0 L170.9 146.0 L171.7 146.0 L172.5 146.0 L173.3 146.1 L174.2 146.1 L175.0 146.1 L175.8 146.1 L176.7 146.2 L177.5 146.2 L178.3 146.3 L179.1 146.3 L180.0 146.4 L180.8 146.4 L181.6 146.5 L182.5 146.6 L183.3 146.7 L184.1 146.8 L184.9 146.9 L185.8 147.0 L186.6 147.1 L187.4 147.3 L188.3 147.4 L189.1 147.6 L189.9 147.7 L190.7 147.9 L191.6 148.1 L192.4 148.3 L193.2 148.5 L194.1 148.8 L194.9 149.0 L195.7 149.3 L196.5 149.5 L197.4 149.8 L198.2 150.1 L199.0 150.4 L199.9 150.8 L200.7 151.1 L201.5 151.5 L202.3 151.9 L203.2 152.3 L204.0 152.7 L204.8 153.2 L205.7 153.6 L206.5 154.1 L207.3 154.6 L208.1 155.1 L209.0 155.7 L209.8 156.2 L210.6 156.8 L211.5 157.4 L212.3 158.0 L213.1 158.7 L213.9 159.4 L214.8 160.0 L215.6 160.8 L216.4 161.5 L217.3 162.3 L218.1 163.1 L218.9 163.9 L219.7 164.7 L220.6 165.6 L221.4 166.5 L222.2 167.4 L223.1 168.4 L223.9 169.3 L224.7 170.3 L225.5 171.4 L226.4 172.4 L227.2 173.5 L228.0 174.6 L228.9 175.8 L229.7 177.0 L230.5 178.2 L231.3 179.4 L232.2 180.7 L233.0 182.0 L233.8 183.4 L234.7 184.7 L235.5 186.1 L236.3 187.6 L237.1 189.0 L238.0 190.6 L238.8 192.1 L239.6 193.7 L240.5 195.3 L241.3 196.9 L242.1 198.6 L242.9 200.3 L243.8 202.1 L244.6 203.9 L245.4 205.7 L246.3 207.6 L247.1 209.5 L247.9 211.5 L248.7 213.5 L249.6 215.5 L250.4 217.6 L251.2 219.7 L252.1 221.8 L252.9 224.0 L253.7 226.2 L254.5 228.5 L255.4 230.8 L256.2 233.2 L257.0 235.6 L257.9 238.1 L258.7 240.6 L259.5 243.1 L260.3 245.7 L261.2 248.3 L262.0 251.0 L262.8 253.7 L263.7 256.5 L264.5 259.3 L265.3 262.2 L266.1 265.1 L267.0 268.0 L267.8 271.1 L268.6 272.0" fill="none" stroke="#1f6f9c" stroke-width="2.80" stroke-linecap="round" stroke-linejoin="round"/></g><line x1="68.67" y1="20.00" x2="68.67" y2="272.00" stroke="#dde9f1" stroke-width="1"/><line x1="262.00" y1="20.00" x2="262.00" y2="272.00" stroke="#dde9f1" stroke-width="1"/><line x1="358.67" y1="20.00" x2="358.67" y2="272.00" stroke="#dde9f1" stroke-width="1"/><line x1="30.00" y1="251.00" x2="378.00" y2="251.00" stroke="#dde9f1" stroke-width="1"/><line x1="30.00" y1="198.50" x2="378.00" y2="198.50" stroke="#dde9f1" stroke-width="1"/><line x1="30.00" y1="93.50" x2="378.00" y2="93.50" stroke="#dde9f1" stroke-width="1"/><line x1="30.00" y1="41.00" x2="378.00" y2="41.00" stroke="#dde9f1" stroke-width="1"/><line x1="24.00" y1="146.00" x2="386.00" y2="146.00" stroke="#1d2b38" stroke-width="1.7" marker-end="url(#ah43)" marker-start="url(#ah43b)"/><line x1="165.33" y1="278.00" x2="165.33" y2="12.00" stroke="#1d2b38" stroke-width="1.7" marker-end="url(#ah43)" marker-start="url(#ah43b)"/><line x1="68.67" y1="142.50" x2="68.67" y2="149.50" stroke="#1d2b38" stroke-width="1.4"/><text x="68.67" y="161.00" fill="#3d4f5e" font-family="Georgia, 'Times New Roman', serif" font-size="11" text-anchor="middle" direction="ltr" stroke="#fff" stroke-width="3" paint-order="stroke" stroke-linejoin="round">−1</text><line x1="262.00" y1="142.50" x2="262.00" y2="149.50" stroke="#1d2b38" stroke-width="1.4"/><text x="262.00" y="161.00" fill="#3d4f5e" font-family="Georgia, 'Times New Roman', serif" font-size="11" text-anchor="middle" direction="ltr" stroke="#fff" stroke-width="3" paint-order="stroke" stroke-linejoin="round">1</text><line x1="358.67" y1="142.50" x2="358.67" y2="149.50" stroke="#1d2b38" stroke-width="1.4"/><text x="358.67" y="161.00" fill="#3d4f5e" font-family="Georgia, 'Times New Roman', serif" font-size="11" text-anchor="middle" direction="ltr" stroke="#fff" stroke-width="3" paint-order="stroke" stroke-linejoin="round">2</text><line x1="161.83" y1="251.00" x2="168.83" y2="251.00" stroke="#1d2b38" stroke-width="1.4"/><text x="159.33" y="254.80" fill="#3d4f5e" font-family="Georgia, 'Times New Roman', serif" font-size="11" text-anchor="end" direction="ltr" stroke="#fff" stroke-width="3" paint-order="stroke" stroke-linejoin="round">−2</text><line x1="161.83" y1="198.50" x2="168.83" y2="198.50" stroke="#1d2b38" stroke-width="1.4"/><text x="159.33" y="202.30" fill="#3d4f5e" font-family="Georgia, 'Times New Roman', serif" font-size="11" text-anchor="end" direction="ltr" stroke="#fff" stroke-width="3" paint-order="stroke" stroke-linejoin="round">−1</text><line x1="161.83" y1="93.50" x2="168.83" y2="93.50" stroke="#1d2b38" stroke-width="1.4"/><text x="159.33" y="97.30" fill="#3d4f5e" font-family="Georgia, 'Times New Roman', serif" font-size="11" text-anchor="end" direction="ltr" stroke="#fff" stroke-width="3" paint-order="stroke" stroke-linejoin="round">1</text><line x1="161.83" y1="41.00" x2="168.83" y2="41.00" stroke="#1d2b38" stroke-width="1.4"/><text x="159.33" y="44.80" fill="#3d4f5e" font-family="Georgia, 'Times New Roman', serif" font-size="11" text-anchor="end" direction="ltr" stroke="#fff" stroke-width="3" paint-order="stroke" stroke-linejoin="round">2</text><text x="390.00" y="150.00" fill="#16222e" font-family="Georgia, 'Times New Roman', serif" font-size="13" font-style="italic" text-anchor="start" direction="ltr">x</text><text x="165.33" y="8.00" fill="#16222e" font-family="Georgia, 'Times New Roman', serif" font-size="13" font-style="italic" text-anchor="middle" direction="ltr">y</text><g clip-path="url(#cp43)"><text x="30.00" y="26.00" fill="#16222e" font-family="Georgia, 'Times New Roman', serif" font-size="13.0" text-anchor="middle" font-style="italic">A</text><text x="237.83" y="76.70" fill="#b3322c" font-family="Georgia, 'Times New Roman', serif" font-size="13.5" text-anchor="middle" direction="ltr" font-style="italic" stroke="#fff" stroke-width="3" paint-order="stroke" stroke-linejoin="round">f</text></g></svg>